<?xml version="1.0" encoding="utf-8"?>
<!-- Generator: Adobe Illustrator 17.1.0, SVG Export Plug-In . SVG Version: 6.00 Build 0)  -->
<!DOCTYPE svg PUBLIC "-//W3C//DTD SVG 1.1//EN" "http://www.w3.org/Graphics/SVG/1.1/DTD/svg11.dtd">
<svg version="1.1" id="Слой_1" xmlns="http://www.w3.org/2000/svg" xmlns:xlink="http://www.w3.org/1999/xlink" x="0px" y="0px"
	 viewBox="0 0 500 500" enable-background="new 0 0 500 500" xml:space="preserve">
<g>
	<path fill="#FE6702" d="M249,24.2c8.2-1.6,25.7,0.7,38,0.7c7,1.2,14.1,2.3,21.1,3.8c23.3,5,44.2,14.4,59.2,33.9
		c10.3,13.3,17.5,28.2,22.1,44.4c9.3,32.9,7.6,63.9-15.9,91.3c-10.6,12.4-20.6,25.4-30.4,38.4c-4.2,5.6-7.9,11.8-10.8,18.2
		c-1.5,3.3-2,8.4-0.5,11.4c5.5,10.8,12.2,21.1,21.8,29c9.4,7.7,20,11,32.3,9.1c15-2.3,26.7-10.6,37.8-20.1
		c8.4-7.2,13.5-15.9,14.9-27.2c2.4-18.7-3.4-33.1-17.9-41.8c-11.1-6.7-21.2-2-22.7,10.8c-0.6,5-0.5,10-0.8,15
		c-9.4-3.1-13.2-8-12.7-17.3c0.3-5,1.3-10.1,2.5-15c1.5-6,5.5-9.8,11.4-11.7c9-3,18.3-4.5,27.8-3.6c2.7,0.2,5.8,0.8,7.9,2.3
		c7.2,5.3,14.3,10.7,20.7,16.9c6.6,6.2,8.9,14.3,8.4,23.6c-2.4,41.8-24.2,70.3-60.2,89.2c-9.1,4.8-19,5.1-28.9,3.5
		c-18.7-3.1-33.3-12.2-42.5-29.3c-4.7-8.7-9.6-17.3-14.6-26.3c-2.9,26.4,5,48.4,24.5,65.9c12,10.8,26.2,13.5,41.3,7.9
		c11.7-4.3,22.9-9.8,34.4-14.5c7.5-3.1,15.1-6.3,22.9-8.3c8.9-2.3,17.4-0.8,23,7.5c3.9,5.8,9.9,16.2,10.1,16.9
		c0.9,5.2,0.9,3.4,0.8,8.8c-0.2,0.5-0.7,4.1-0.9,4.6c-0.2,0.4-10,21.8-16,31.5c-7.1,11.4-18.9,15.9-31.6,17.7
		c-6.9,1-12.1-2.9-12.9-8c6.5-1.1,13.8-0.6,19.3-3.5c14.9-7.7,24-20.1,24.5-37.5c0.4-12.8-9.9-21.5-22-17.6
		c-13.8,4.5-27.4,10.1-40.4,16.6c-8.6,4.3-17.1,8.5-26.6,10c-11,1.8-22.5,2.4-31.2-5.7c-15.2-14.1-29.1-29.7-35.5-49.9
		c-4.8-15.2-11.9-29.3-18.1-43.9c-0.4-1-1-1.9-2-3.7c-0.5,4-1,6.8-1.3,9.7c-2.1,17.8-4,35.6-0.9,53.4c3.1,18.3,6.7,36.6,10.3,54.9
		c2.8,14.2,0.1,26.5-11.1,36.5c-14.6,13-29.4,25.6-48.6,31.4c-3.9,1-6.3,1-11.1,0c-1.5-0.8-2.9-1.5-4.4-2.3
		c-5.3-2.8-10.6-6-11.1-12.6c-0.9-11.3,0.7-22.5,5.5-32.9c2.3-4.9,10.5-6.6,15.9-3.1c-6.2,3.2-10,7.8-12.1,14.4
		c-2.4,7.2-0.5,12.6,4.6,17.5c5.1,4.9,11.1,6.9,17.7,3.6c7.1-3.6,14.5-7,20.8-11.8c7.9-5.9,15.2-13.2,16.3-23.7
		c1.2-11.8-0.5-23.4-7.2-33.7c-3.3-5.2-7.3-10.1-9.5-15.8c-2.3-6-4-12.8-3.7-19.1c0.5-9.5,2.9-18.8,4.6-28.2
		c1.5-8.2,3-16.4,4.5-24.6c-0.5-0.1-0.9-0.2-1.4-0.3c-4,11.9-9,23.5-11.7,35.7c-3.7,16.3-13,28.3-25.5,38.4
		c-4.7,3.8-10.1,5.7-16.3,5.3c-4.8-0.3-9.5-0.2-14.3-0.1c-3.6,0.1-6.3,1.6-7,5.4c-0.8,3.9-0.3,7.6,3.6,9.6c2.5,1.3,5.5,2.1,8.3,2.6
		c4.3,0.7,8.6,0.9,13.1,1.3c-2.8,5.6-6.6,9.1-10.5,8.9c-9.2-0.5-18-2.7-25.4-8.6c-5.8-4.5-6.7-10.9-5.6-17.6
		c1.1-6.1,5.1-10.3,11-11.9c4-1.1,8.2-1.5,12.3-1.8c8-0.5,15.2-2.9,20.5-9.2c8.3-9.8,15.6-20.3,18.6-33.1c2.3-9.9,4.1-20,6-30
		c-0.6-0.1-1.1-0.3-1.7-0.4c-1,2.8-2.1,5.6-3.1,8.4c-5.6,17.2-13,33.2-26.7,45.7c-8.7,7.9-18.2,13.6-29.8,15.8
		c-17.2,3.2-34.4,6.9-51.8,9.1c-14.6,1.9-24.6,9.5-32.3,21.3c-6.4,9.9-4.6,19,5.3,25.3c6.6,4.2,9.6,3.8,14.4-2.4
		c3.9-4.9,7.7-9.9,12.4-15.9c2.9,3.7,5.9,6.2,7.1,9.4c3,7.4-0.6,19.1-7,24c-14.8,11.3-42,6.3-47.8-14.6c-1.9-6.8-2.3-14.3-2-21.5
		c0.7-21.8,16.8-38.6,38.5-40.8c4.9-0.5,9.8-1,14.7-1.2c19.7-0.7,37.5-7,54.7-16.3c15.5-8.3,25.1-19.9,27.6-37.3
		c0.4-2.9,1.3-5.7,1.9-8.6c0.2-1.1,0.1-2.2,0.2-3.3c-2.1,1.2-3.2,2.7-4.5,4.2c-6,7.3-11.6,14.9-18,21.7
		c-11,11.6-23.8,20.6-39.9,23.7c-13,2.6-26.1,3.2-39.5,3.1c-24.7-0.1-44.7-9.9-62.1-26.5c-8.1-7.7-12.9-17.3-15.9-27.9
		c-0.5-4.5-1.9-13.6-2.8-18c0-8,1.4-19.5,1.4-19.5s0.7-1.6,1.1-2.4c3.3-8.2,6-16.9,10.1-24.7c7.1-13.2,17.2-23.2,32.8-26.2
		c6.3-1.2,12-0.9,16.6,4.1c5.6,6.1,11.3,12.2,16.6,18.6c1.6,2,3,5,2.9,7.5c-0.2,5.8-0.8,11.7-2.2,17.3c-1.9,7.8-7.7,12.5-14.8,15.5
		c-6.6,2.8-13.1-0.7-15.1-7.6c0.4-0.1,0.8-0.5,1.2-0.4c2.6,0.4,5.1,1.2,7.7,1.4c1.4,0.1,3.6-0.6,4.1-1.5c6.1-12.6,6.3-25.3-9-32.7
		c-10.4-5.1-19.4-1.5-23.2,9.5c-2.4,6.7-4.5,13.4-6.4,20.2c-2.7,10.1-4,20.4,0.5,30.3c3.6,7.8,7.5,15.6,12.2,22.7
		c10.7,16.4,31.4,24.4,50.2,20.5c25-5.2,46.1-17.3,64.6-34.7c7.3-6.9,8.9-14.6,5.7-23.9c-3.9-11.6-10.6-21.4-18.7-30.5
		c-6.5-7.4-13.2-14.7-18.8-22.8c-25.4-36.8-24.1-78.7,3.2-114.1c12.9-16.7,29.3-29.4,47.7-39.5c12.4-6.7,25.9-13.5,40.1-15.2
		C242.4,25,240.8,25.8,249,24.2z M253.7,140.8c0-15.1-3.6-27.1-10.4-36.6c-17.5-24.8-50.5-26.9-69.9-4.6
		c-18.3,21.1-18.9,53.1-1.2,74.9c17.1,21.1,46.2,22.8,65.4,3.7C248.6,167.1,253.4,153.4,253.7,140.8z M362,141.1
		c0-13.6-2.5-23.6-7.3-32.1c-16-28.5-50.5-33.4-72.2-10.3c-20.3,21.6-19.7,58.4,1.2,79.3c19,19,48.1,17.6,65.2-3.2
		C357.7,164.1,361.8,151.6,362,141.1z M239.1,219.6c-1.8,3.6,0,7,5.7,8.6c8.2,2.3,16.7,3.1,25,0.6c1.7-0.5,3.6-2,4.4-3.5
		c2.3-4.5-0.3-14.9-4.8-19c0.2,2.4,0.3,4.3,0.6,6.2c1.2,7.7-1.9,11.8-9.7,11.1C253.3,223.1,246.5,221.1,239.1,219.6z M238.3,25.5
		c4.2-0.5,6.1-0.5,10.8-1.3 M27.5,253.5C27,242.8,28.9,234,28.9,234 M28.9,234c0,0,0.5-1.2,1.1-2.4"/>
	<path fill="#FDFCFB" d="M253.7,140.8c-0.3,12.6-5.1,26.3-16.1,37.3c-19.2,19.1-48.3,17.4-65.4-3.7c-17.6-21.7-17.1-53.8,1.2-74.9
		c19.4-22.3,52.5-20.1,69.9,4.6C250.1,113.7,253.8,125.7,253.7,140.8z M246.4,134.4c-0.2-1.6-0.5-4.5-1.1-7.3
		c-2.9-12.8-13.5-22.7-25.3-23.5c-12.1-0.8-23.3,6.8-27.8,19.4c-4.5,12.5-2.8,24.3,5.8,34.7c10.8,13,29.2,12.9,40.3,0.1
		C243.7,151.4,246.2,144,246.4,134.4z"/>
	<path fill="#FDFCFB" d="M362,141.1c-0.2,10.5-4.3,22.9-13.1,33.7c-17.1,20.7-46.1,22.2-65.2,3.2c-20.9-20.9-21.5-57.7-1.2-79.3
		c21.7-23.1,56.2-18.2,72.2,10.3C359.4,117.6,362,127.6,362,141.1z M330.6,134.4c-0.2-1.6-0.4-4.5-1.1-7.4
		c-2.9-12.8-13.5-22.7-25.3-23.5c-12-0.8-23.3,6.9-27.8,19.4c-3.9,10.7-3,21.2,3,31c10.2,16.5,31.5,18,43.6,3.1
		C328.1,150.8,330.4,143.6,330.6,134.4z"/>
	<path fill="#FEF8F4" d="M239.1,219.6c7.4,1.5,14.2,3.5,21.2,4.1c7.8,0.7,10.9-3.4,9.7-11.1c-0.3-1.9-0.4-3.8-0.6-6.2
		c4.5,4.1,7.1,14.5,4.8,19c-0.8,1.5-2.7,3-4.4,3.5c-8.4,2.6-16.8,1.7-25-0.6C239.1,226.7,237.3,223.2,239.1,219.6z"/>
	<path fill="#474747" d="M246.4,134.4c-0.3,9.6-2.7,17.1-8.2,23.4c-11,12.8-29.5,12.9-40.3-0.1c-8.6-10.3-10.2-22.1-5.8-34.7
		c4.5-12.6,15.8-20.2,27.8-19.4c11.7,0.8,22.4,10.6,25.3,23.5C246,129.9,246.2,132.8,246.4,134.4z M205.4,124.9
		c6.6-0.8,12.6-6.8,12.7-12.6c-5.7,0-11.7,6-12.6,12.7c-4.6,0.1-6.6,3-7.8,6.8C201.5,130.8,205,129.6,205.4,124.9z"/>
	<path fill="#484848" d="M330.6,134.4c-0.3,9.2-2.5,16.5-7.6,22.7c-12.1,14.9-33.4,13.4-43.6-3.1c-6.1-9.8-7-20.2-3-31
		c4.6-12.5,15.8-20.2,27.8-19.4c11.8,0.8,22.4,10.6,25.3,23.5C330.2,129.9,330.4,132.8,330.6,134.4z M288.7,124.9
		c6.6-0.8,12.6-6.8,12.7-12.6c-5.7,0-11.6,6-12.6,12.7c-4.6,0.1-6.6,3-7.8,6.8C284.7,130.7,288.3,129.6,288.7,124.9z"/>
	<path fill="#F4F4F4" d="M205.5,125c0.9-6.7,6.9-12.7,12.6-12.7c-0.1,5.8-6.1,11.8-12.7,12.6L205.5,125z"/>
	<path fill="#E9E9E9" d="M205.4,124.9c-0.4,4.7-4,5.9-7.7,6.9c1.3-3.7,3.2-6.7,7.8-6.8C205.5,125,205.4,124.9,205.4,124.9z"/>
	<path fill="#F4F4F4" d="M288.8,125c0.9-6.8,6.9-12.7,12.6-12.7c-0.1,5.8-6.1,11.8-12.7,12.6L288.8,125z"/>
	<path fill="#E9E9E9" d="M288.7,124.9c-0.3,4.7-4,5.8-7.7,6.9c1.3-3.7,3.2-6.7,7.8-6.8C288.8,125,288.7,124.9,288.7,124.9z"/>
</g>
</svg>
