<svg width="75" height="75" viewBox="0 0 75 75" fill="none" xmlns="http://www.w3.org/2000/svg">
<g clip-path="url(#clip0_0_33)">
<path opacity="0.49" fill-rule="evenodd" clip-rule="evenodd" d="M37.4999 -0.0003C58.2106 -0.0003 74.9999 16.789 74.9999 37.4995C74.9999 58.2104 58.2106 74.9998 37.4999 74.9998C16.7893 74.9998 -7.5e-05 58.2104 -7.5e-05 37.4995C-7.5e-05 16.789 16.7893 -0.0003 37.4999 -0.0003Z" fill="#CC99CC"/>
<g filter="url(#filter0_d_0_33)">
<path fill-rule="evenodd" clip-rule="evenodd" d="M37.4999 5.99962C54.8969 5.99962 68.9999 20.1027 68.9999 37.4996C68.9999 54.8968 54.8969 68.9997 37.4999 68.9997C20.103 68.9997 5.99994 54.8968 5.99994 37.4996C5.99994 20.1027 20.103 5.99962 37.4999 5.99962Z" fill="#A186BE"/>
</g>
<path d="M17.9148 27.244V35.3701H17.6134V27.244H17.9148ZM23.0884 27.244L19.3994 31.4019H17.792L17.8367 31.1061H19.2431L22.6922 27.244H23.0884ZM22.9489 35.3701L19.1426 31.3852L19.3324 31.1229L23.3452 35.3701H22.9489ZM30.4889 31.0392V31.3405H25.0195V31.0392H30.4889ZM25.1702 27.244V35.3701H24.8688V27.244H25.1702ZM30.6619 27.244V35.3701H30.3605V27.244H30.6619ZM38.6484 30.6987V31.9154C38.6484 32.4437 38.5758 32.9274 38.4307 33.3665C38.2893 33.8018 38.0847 34.1776 37.8168 34.4938C37.5526 34.8101 37.2327 35.0538 36.8569 35.2249C36.4811 35.3961 36.0588 35.4817 35.59 35.4817C35.1249 35.4817 34.7026 35.3961 34.3231 35.2249C33.9473 35.0538 33.6236 34.8101 33.352 34.4938C33.0841 34.1776 32.8776 33.8018 32.7325 33.3665C32.5911 32.9274 32.5204 32.4437 32.5204 31.9154V30.6987C32.5204 30.1667 32.5911 29.683 32.7325 29.2476C32.8776 28.8123 33.0841 28.4365 33.352 28.1203C33.6199 27.804 33.9417 27.5603 34.3175 27.3892C34.6933 27.218 35.1137 27.1324 35.5788 27.1324C36.0476 27.1324 36.4699 27.218 36.8457 27.3892C37.2215 27.5603 37.5433 27.804 37.8112 28.1203C38.0828 28.4365 38.2893 28.8123 38.4307 29.2476C38.5758 29.683 38.6484 30.1667 38.6484 30.6987ZM38.347 31.9154V30.6876C38.347 30.2113 38.2856 29.776 38.1628 29.3816C38.0401 28.9835 37.8596 28.6393 37.6215 28.3491C37.3834 28.0589 37.0931 27.8338 36.7508 27.6738C36.4085 27.5138 36.0179 27.4338 35.5788 27.4338C35.1435 27.4338 34.7547 27.5138 34.4124 27.6738C34.0738 27.8338 33.7854 28.0589 33.5473 28.3491C33.3129 28.6393 33.1343 28.9835 33.0115 29.3816C32.8888 29.776 32.8274 30.2113 32.8274 30.6876V31.9154C32.8274 32.3954 32.8888 32.8344 33.0115 33.2325C33.138 33.6306 33.3185 33.9748 33.5529 34.265C33.791 34.5552 34.0812 34.7803 34.4235 34.9403C34.7658 35.1003 35.1547 35.1803 35.59 35.1803C36.029 35.1803 36.4178 35.1003 36.7564 34.9403C37.0987 34.7803 37.3871 34.5552 37.6215 34.265C37.8596 33.9748 38.0401 33.6306 38.1628 33.2325C38.2856 32.8344 38.347 32.3954 38.347 31.9154ZM46.3 27.244V35.3701H45.9986V27.5454H40.8083V35.3701H40.5069V27.244H46.3ZM48.8338 27.244V35.3701H48.5324V27.244H48.8338ZM54.0074 27.244L50.3184 31.4019H48.711L48.7557 31.1061H50.1621L53.6112 27.244H54.0074ZM53.8679 35.3701L50.0616 31.3852L50.2514 31.1229L54.2642 35.3701H53.8679ZM58.1207 27.5008L55.185 35.3701H54.8558L57.8974 27.244H58.1876L58.1207 27.5008ZM60.9782 35.3701L58.0425 27.5008L57.9811 27.244H58.2658L61.3075 35.3701H60.9782ZM60.1187 32.6409V32.9423H56.0501V32.6409H60.1187ZM27.3803 47.8809H27.6816C27.6258 48.4651 27.4714 48.9506 27.2184 49.3376C26.9691 49.7208 26.6361 50.0073 26.2194 50.197C25.8064 50.3868 25.3283 50.4817 24.7851 50.4817C24.3386 50.4817 23.9349 50.3961 23.574 50.2249C23.2131 50.0538 22.9024 49.8101 22.6419 49.4938C22.3852 49.1776 22.188 48.8018 22.0504 48.3665C21.9127 47.9274 21.8439 47.4437 21.8439 46.9154V45.6987C21.8439 45.1667 21.9127 44.683 22.0504 44.2476C22.188 43.8123 22.3852 43.4365 22.6419 43.1203C22.9024 42.804 23.2131 42.5603 23.574 42.3892C23.9349 42.218 24.3386 42.1324 24.7851 42.1324C25.3283 42.1324 25.8064 42.2273 26.2194 42.4171C26.6361 42.6068 26.9691 42.8933 27.2184 43.2765C27.4714 43.6598 27.6258 44.1416 27.6816 44.722H27.3803C27.3244 44.2235 27.1886 43.8049 26.9728 43.4663C26.7608 43.1277 26.4705 42.871 26.1022 42.6961C25.7376 42.5212 25.2985 42.4338 24.7851 42.4338C24.3907 42.4338 24.0316 42.5119 23.7079 42.6682C23.3842 42.8208 23.1052 43.0403 22.8708 43.3268C22.6401 43.6133 22.4615 43.9556 22.335 44.3537C22.2085 44.7518 22.1452 45.1964 22.1452 45.6876V46.9154C22.1452 47.4065 22.2085 47.853 22.335 48.2548C22.4615 48.6567 22.6401 49.0008 22.8708 49.2873C23.1052 49.5738 23.3842 49.7952 23.7079 49.9515C24.0316 50.104 24.3907 50.1803 24.7851 50.1803C25.2874 50.1803 25.7227 50.1003 26.091 49.9403C26.4594 49.7766 26.7515 49.5255 26.9673 49.1869C27.1868 48.8446 27.3244 48.4092 27.3803 47.8809ZM32.2748 46.3573H29.7522L29.741 46.0559H31.8172C32.3083 46.0559 32.7195 45.9927 33.0506 45.8661C33.3855 45.7396 33.6366 45.5462 33.804 45.2857C33.9715 45.0253 34.0552 44.6978 34.0552 44.3035C34.0552 43.9128 33.9659 43.5872 33.7873 43.3268C33.6124 43.0663 33.3501 42.871 33.0004 42.7408C32.6543 42.6105 32.2227 42.5454 31.7056 42.5454H29.8694V50.3701H29.568V42.244H31.7056C32.1148 42.244 32.4832 42.285 32.8106 42.3668C33.138 42.4487 33.4171 42.5752 33.6478 42.7463C33.8785 42.9175 34.0552 43.1352 34.178 43.3993C34.3008 43.6598 34.3621 43.9686 34.3621 44.3258C34.3621 44.6606 34.2989 44.962 34.1724 45.2299C34.0496 45.4978 33.8692 45.7155 33.631 45.8829C33.3929 46.0503 33.099 46.1526 32.7492 46.1899L32.2748 46.3573ZM32.219 50.3701H29.741L29.8359 50.0687H32.219C32.6767 50.0687 33.0692 49.9924 33.3966 49.8399C33.7278 49.6873 33.9826 49.4678 34.1612 49.1813C34.3398 48.8911 34.4291 48.5451 34.4291 48.1432C34.4291 47.8307 34.3491 47.5386 34.1891 47.267C34.0329 46.9954 33.7947 46.7759 33.4748 46.6084C33.1548 46.441 32.7548 46.3573 32.2748 46.3573H30.9577L30.9689 46.0559H32.8943L32.9167 46.1619C33.259 46.2029 33.5659 46.3164 33.8375 46.5024C34.1129 46.6884 34.3305 46.9247 34.4905 47.2112C34.6505 47.494 34.7305 47.8009 34.7305 48.1321C34.7305 48.612 34.6226 49.0194 34.4068 49.3543C34.1947 49.6854 33.9008 49.9385 33.525 50.1133C33.1492 50.2845 32.7139 50.3701 32.219 50.3701ZM41.1208 46.9154H37.8894L37.7889 46.8149C37.268 46.6587 36.868 46.3945 36.589 46.0224C36.3137 45.6466 36.176 45.202 36.176 44.6885C36.176 44.1639 36.282 43.7212 36.4941 43.3603C36.7099 42.9956 37.015 42.7184 37.4094 42.5287C37.8075 42.3389 38.2782 42.244 38.8214 42.244H41.1989V50.3701H40.892V42.5454H38.8214C38.0475 42.5454 37.4634 42.7333 37.069 43.1091C36.6746 43.4849 36.4774 44.0077 36.4774 44.6774C36.4774 45.0569 36.5574 45.3918 36.7174 45.682C36.8773 45.9722 37.1062 46.1992 37.4038 46.3629C37.7052 46.5266 38.0624 46.6084 38.4754 46.6084H41.132L41.1208 46.9154ZM38.241 46.6363L36.2262 50.3701H35.8802L37.9284 46.6363H38.241ZM45.407 46.3573H44.3578V46.0671H45.3847C45.9726 46.0671 46.447 45.9964 46.8079 45.855C47.1725 45.7099 47.4385 45.5052 47.606 45.2411C47.7771 44.9769 47.8627 44.6644 47.8627 44.3035C47.8627 43.9388 47.7771 43.617 47.606 43.3379C47.4348 43.0552 47.1688 42.8338 46.8079 42.6738C46.447 42.5138 45.9819 42.4338 45.4126 42.4338C44.981 42.4338 44.5829 42.5119 44.2183 42.6682C43.8574 42.8208 43.5672 43.0421 43.3476 43.3324C43.1318 43.6226 43.0239 43.9686 43.0239 44.3704H42.7226C42.7226 44.0244 42.7933 43.7137 42.9346 43.4384C43.0797 43.1631 43.2769 42.9287 43.5262 42.7352C43.7792 42.538 44.0676 42.3892 44.3913 42.2887C44.715 42.1845 45.0554 42.1324 45.4126 42.1324C45.8331 42.1324 46.2107 42.1789 46.5456 42.272C46.8842 42.365 47.1744 42.5045 47.4162 42.6905C47.6581 42.8728 47.8422 43.1017 47.9687 43.377C48.099 43.6486 48.1641 43.9649 48.1641 44.3258C48.1641 44.6048 48.1046 44.8671 47.9855 45.1127C47.8664 45.3583 47.6897 45.5741 47.4553 45.7601C47.2246 45.9461 46.9381 46.0931 46.5958 46.201C46.2535 46.3052 45.8572 46.3573 45.407 46.3573ZM44.3578 46.1061H45.407C45.8982 46.1061 46.3242 46.1526 46.6851 46.2457C47.0497 46.3387 47.3492 46.4745 47.5837 46.6531C47.8218 46.8317 47.9985 47.0531 48.1139 47.3172C48.2329 47.5777 48.2924 47.8772 48.2924 48.2158C48.2924 48.5767 48.2218 48.8985 48.0804 49.1813C47.939 49.4603 47.7381 49.6985 47.4776 49.8957C47.2209 50.0891 46.9176 50.2361 46.5679 50.3366C46.2182 50.437 45.8331 50.4873 45.4126 50.4873C45.0778 50.4873 44.7429 50.4407 44.408 50.3477C44.0769 50.251 43.7755 50.1059 43.5039 49.9124C43.2323 49.7189 43.0146 49.4734 42.8509 49.1757C42.6872 48.8743 42.6054 48.5209 42.6054 48.1153H42.9123C42.9123 48.5171 43.0184 48.8743 43.2304 49.1869C43.4425 49.4957 43.7365 49.7394 44.1122 49.918C44.488 50.0966 44.9215 50.1859 45.4126 50.1859C45.9633 50.1859 46.4302 50.1077 46.8135 49.9515C47.1967 49.7952 47.4888 49.572 47.6897 49.2818C47.8906 48.9878 47.9911 48.6399 47.9911 48.2381C47.9911 47.907 47.9334 47.6242 47.8181 47.3898C47.7064 47.1517 47.5409 46.9582 47.3213 46.8093C47.1018 46.6605 46.8302 46.5526 46.5065 46.4856C46.1828 46.415 45.8089 46.3796 45.3847 46.3796H44.3578V46.1061ZM50.2849 49.8399L55.5366 42.244H55.838V50.3701H55.5366V42.7575L50.2849 50.3701H49.9835V42.244H50.2849V49.8399Z" fill="white"/>
</g>
<defs>
<filter id="filter0_d_0_33" x="4.79994" y="5.99963" width="65" height="65.0001" filterUnits="userSpaceOnUse" color-interpolation-filters="sRGB">
<feFlood flood-opacity="0" result="BackgroundImageFix"/>
<feColorMatrix in="SourceAlpha" type="matrix" values="0 0 0 0 0 0 0 0 0 0 0 0 0 0 0 0 0 0 127 0" result="hardAlpha"/>
<feOffset dx="-0.2" dy="1"/>
<feGaussianBlur stdDeviation="0.5"/>
<feColorMatrix type="matrix" values="0 0 0 0 0.129412 0 0 0 0 0.117647 0 0 0 0 0.117647 0 0 0 0.09 0"/>
<feBlend mode="normal" in2="BackgroundImageFix" result="effect1_dropShadow_0_33"/>
<feBlend mode="normal" in="SourceGraphic" in2="effect1_dropShadow_0_33" result="shape"/>
</filter>
<clipPath id="clip0_0_33">
<rect width="75" height="75" fill="white"/>
</clipPath>
</defs>
</svg>
